<svg width="96" height="26" fill="none" xmlns="http://www.w3.org/2000/svg"><path fill-rule="evenodd" clip-rule="evenodd" d="M69 1H1v24h68V1ZM0 0v26h70V0H0Z" fill="#3F2F24"/><path d="M12.185 7.38h6.855v1.71h-4.965v2.79h4.68v1.71h-4.68V18h-1.89V7.38ZM27.803 18h-1.71v-1.155h-.03c-.17.36-.43.675-.78.945-.35.26-.825.39-1.425.39-.48 0-.89-.075-1.23-.225-.33-.16-.6-.37-.81-.63-.21-.27-.36-.575-.45-.915a4.145 4.145 0 0 1-.135-1.065V10.8h1.8v3.645c0 .2.01.425.03.675.02.24.07.47.15.69.09.21.22.39.39.54.18.14.43.21.75.21.3 0 .55-.05.75-.15.21-.1.38-.235.51-.405.14-.17.24-.365.3-.585.06-.22.09-.45.09-.69V10.8h1.8V18ZM30.447 10.8h1.8v1.14h.03c.2-.42.485-.745.855-.975.37-.23.795-.345 1.275-.345.11 0 .215.01.315.03.11.02.22.045.33.075v1.74c-.15-.04-.3-.07-.45-.09a2 2 0 0 0-.42-.045c-.42 0-.76.08-1.02.24-.25.15-.445.325-.585.525-.13.2-.22.4-.27.6-.04.2-.06.35-.06.45V18h-1.8v-7.2ZM37.14 10.8h1.71v1.155h.03c.17-.36.43-.67.78-.93.35-.27.825-.405 1.425-.405.48 0 .885.08 1.215.24.34.16.615.37.825.63.21.26.36.56.45.9.09.34.135.695.135 1.065V18h-1.8v-3.645c0-.2-.01-.42-.03-.66-.02-.25-.075-.48-.165-.69-.08-.22-.21-.4-.39-.54-.18-.15-.425-.225-.735-.225-.3 0-.555.05-.765.15-.2.1-.37.235-.51.405a1.68 1.68 0 0 0-.285.585c-.06.22-.09.45-.09.69V18h-1.8v-7.2ZM46.384 10.8h1.8V18h-1.8v-7.2Zm-.255-2.445c0-.29.105-.54.315-.75.22-.22.495-.33.825-.33.33 0 .605.105.825.315.23.2.345.455.345.765s-.115.57-.345.78c-.22.2-.495.3-.825.3-.33 0-.605-.105-.825-.315a1.074 1.074 0 0 1-.315-.765ZM52.65 11.805h.03c.14-.3.385-.57.735-.81.36-.25.82-.375 1.38-.375.48 0 .885.08 1.215.24.34.16.615.37.825.63.21.26.36.56.45.9.09.34.135.695.135 1.065V18h-1.8v-3.645c0-.2-.01-.42-.03-.66-.02-.25-.075-.48-.165-.69-.08-.22-.21-.4-.39-.54-.18-.15-.425-.225-.735-.225-.3 0-.555.05-.765.15-.2.1-.37.235-.51.405a1.68 1.68 0 0 0-.285.585c-.06.22-.09.45-.09.69V18h-1.8V6.66h1.8v5.145ZM59.703 14.4c0-.57.1-1.085.3-1.545.21-.47.49-.87.84-1.2a3.67 3.67 0 0 1 1.245-.765c.48-.18.99-.27 1.53-.27s1.05.09 1.53.27c.48.18.895.435 1.245.765.35.33.625.73.825 1.2.21.46.315.975.315 1.545s-.105 1.09-.315 1.56c-.2.46-.475.855-.825 1.185a3.67 3.67 0 0 1-1.245.765c-.48.18-.99.27-1.53.27s-1.05-.09-1.53-.27a3.67 3.67 0 0 1-1.245-.765c-.35-.33-.63-.725-.84-1.185-.2-.47-.3-.99-.3-1.56Zm1.8 0c0 .28.045.55.135.81.1.26.24.49.42.69a2.089 2.089 0 0 0 1.56.66c.33 0 .625-.06.885-.18s.48-.28.66-.48c.19-.2.33-.43.42-.69.1-.26.15-.53.15-.81s-.05-.55-.15-.81c-.09-.26-.23-.49-.42-.69-.18-.2-.4-.36-.66-.48s-.555-.18-.885-.18a2.089 2.089 0 0 0-1.56.66c-.18.2-.32.43-.42.69-.09.26-.135.53-.135.81ZM69.744 10.8h1.71v1.125h.03a2.4 2.4 0 0 1 .765-.9c.36-.27.84-.405 1.44-.405 1.13 0 1.88.445 2.25 1.335.26-.46.585-.795.975-1.005.39-.22.855-.33 1.395-.33.48 0 .885.08 1.215.24.33.16.595.38.795.66.21.28.36.61.45.99.09.37.135.77.135 1.2V18h-1.8v-4.08c0-.22-.02-.43-.06-.63-.04-.21-.11-.39-.21-.54-.1-.16-.235-.285-.405-.375-.17-.09-.39-.135-.66-.135-.28 0-.52.055-.72.165-.19.1-.35.24-.48.42-.12.17-.21.37-.27.6-.05.22-.075.445-.075.675V18h-1.8v-4.29c0-.45-.095-.805-.285-1.065-.19-.27-.505-.405-.945-.405-.3 0-.555.05-.765.15-.2.1-.37.235-.51.405a1.68 1.68 0 0 0-.285.585c-.06.22-.09.45-.09.69V18h-1.8v-7.2ZM84.91 15.03c.06.54.27.96.63 1.26.36.3.795.45 1.305.45.45 0 .826-.09 1.126-.27.31-.19.58-.425.81-.705l1.29.975c-.42.52-.89.89-1.41 1.11-.52.22-1.066.33-1.636.33-.54 0-1.05-.09-1.53-.27a3.67 3.67 0 0 1-1.245-.765c-.35-.33-.63-.725-.84-1.185-.2-.47-.3-.99-.3-1.56 0-.57.1-1.085.3-1.545.21-.47.49-.87.84-1.2a3.67 3.67 0 0 1 1.246-.765c.48-.18.99-.27 1.53-.27.5 0 .955.09 1.365.27.42.17.774.42 1.064.75.3.33.53.74.69 1.23.17.48.255 1.035.255 1.665v.495h-5.49Zm3.69-1.35c-.01-.53-.174-.945-.494-1.245-.32-.31-.765-.465-1.335-.465-.54 0-.97.155-1.29.465-.31.31-.5.725-.57 1.245h3.69ZM92.684 16.95c0-.32.115-.595.345-.825.24-.23.525-.345.855-.345.32 0 .6.11.84.33.24.22.36.49.36.81 0 .32-.12.595-.36.825-.23.23-.51.345-.84.345-.16 0-.315-.03-.465-.09-.14-.06-.265-.14-.375-.24-.11-.1-.2-.22-.27-.36a1.13 1.13 0 0 1-.09-.45Z" fill="#fff"/></svg>